<svg width="1064" height="374" viewBox="0 0 1064 374" fill="none" xmlns="http://www.w3.org/2000/svg">
<path d="M-83 200.282C-83 182.774 -77.2565 165.749 -66.6504 151.819L-17.8907 87.7786C-8.48641 75.427 4.3085 66.0785 18.934 60.8729L103.662 30.7158C118.257 25.5209 134.047 24.6756 149.113 28.2825L248.681 52.1188C256.238 53.9278 264.017 54.6263 271.776 54.1922L402.617 46.8715C411.803 46.3574 420.832 44.2625 429.307 40.6788L488.02 15.8496C511.571 5.89041 538.463 7.7888 560.381 20.9578L586.267 36.5108C605.694 48.183 629.16 51.0676 650.835 44.4481L738.767 17.5942C755.092 12.6085 772.585 12.9754 788.687 18.6413L848.219 39.5889C860.365 43.8629 873.364 45.1417 886.111 43.3168L998.533 27.2214C1018.58 24.3515 1038.97 29.1903 1055.59 40.7619L1104.25 74.6447C1110.83 79.2291 1118.66 81.6868 1126.68 81.6868C1151.27 81.6868 1169.81 104.027 1165.27 128.192L1137.96 273.753C1130.86 311.586 1097.83 339 1059.33 339H-2.99998C-47.1828 339 -83 303.183 -83 259V200.282Z" fill="#F2F2F2"/>
<path d="M1146 258.282C1146 240.774 1140.26 223.749 1129.65 209.819L1080.89 145.779C1071.49 133.427 1058.69 124.078 1044.07 118.873L959.338 88.7158C944.743 83.5209 928.953 82.6756 913.887 86.2825L826.025 107.316C810.949 110.926 795.15 110.077 780.548 104.874L672.571 66.4009C657.22 60.931 640.564 60.28 624.832 64.5351L468.445 106.834C453.92 110.763 438.582 110.516 424.191 106.121L324.233 75.5942C307.908 70.6085 290.415 70.9754 274.313 76.6413L214.781 97.5889C202.635 101.863 189.636 103.142 176.889 101.317L64.4667 85.2214C44.421 82.3515 24.0327 87.1903 7.41443 98.7619L-41.2458 132.645C-47.8298 137.229 -55.66 139.687 -63.6829 139.687C-88.2699 139.687 -106.808 162.027 -102.274 186.192L-74.9619 331.753C-67.8632 369.586 -34.8273 397 3.66602 397H1066C1110.18 397 1146 361.183 1146 317V258.282Z" fill="#ABABAB"/>
<path d="M-111 317.282C-111 299.774 -105.256 282.749 -94.6504 268.819L-45.8907 204.779C-36.4864 192.427 -23.6915 183.078 -9.06601 177.873L75.6621 147.716C90.2573 142.521 106.047 141.676 121.113 145.282L208.975 166.316C224.051 169.926 239.85 169.077 254.452 163.874L362.429 125.401C377.78 119.931 394.436 119.28 410.168 123.535L566.555 165.834C581.08 169.763 596.418 169.516 610.809 165.121L710.767 134.594C727.092 129.609 744.585 129.975 760.687 135.641L820.219 156.589C832.365 160.863 845.364 162.142 858.111 160.317L970.533 144.221C990.579 141.352 1010.97 146.19 1027.59 157.762L1076.25 191.645C1082.83 196.229 1090.66 198.687 1098.68 198.687C1123.27 198.687 1141.81 221.027 1137.27 245.192L1109.96 390.753C1102.86 428.586 1069.83 456 1031.33 456H-31C-75.1828 456 -111 420.183 -111 376V317.282Z" fill="#3B3B3B"/>
</svg>
