<svg width="121" height="60" viewBox="0 0 121 60" fill="none" xmlns="http://www.w3.org/2000/svg">
<path d="M19.7064 46.9443H21.6889C22.4864 46.9443 23.0993 47.04 23.5277 47.2314C23.9561 47.4183 24.2934 47.7077 24.5395 48.0996C24.7901 48.4915 24.9154 48.9268 24.9154 49.4053C24.9154 49.8519 24.8061 50.2598 24.5873 50.6289C24.3686 50.9935 24.0473 51.2897 23.6234 51.5176C24.1475 51.6953 24.5508 51.9049 24.8334 52.1465C25.1159 52.3835 25.3347 52.6729 25.4896 53.0146C25.6492 53.3519 25.7289 53.7188 25.7289 54.1152C25.7289 54.9219 25.4327 55.6055 24.8402 56.166C24.2523 56.722 23.4617 57 22.4682 57H19.7064V46.9443ZM20.6908 47.9287V51.1484H21.265C21.9623 51.1484 22.475 51.0846 22.8031 50.957C23.1312 50.8249 23.391 50.6198 23.5824 50.3418C23.7738 50.0592 23.8695 49.7471 23.8695 49.4053C23.8695 48.945 23.7077 48.585 23.3842 48.3252C23.0652 48.0609 22.5548 47.9287 21.8529 47.9287H20.6908ZM20.6908 52.1602V56.0156H21.935C22.6687 56.0156 23.2064 55.945 23.5482 55.8037C23.89 55.6579 24.1635 55.4323 24.3686 55.127C24.5782 54.8216 24.683 54.4912 24.683 54.1357C24.683 53.6891 24.5372 53.2995 24.2455 52.9668C23.9538 52.6341 23.5528 52.4062 23.0424 52.2832C22.7006 52.2012 22.1059 52.1602 21.2582 52.1602H20.6908ZM33.4002 50.376L32.785 51.0117C32.2745 50.515 31.7755 50.2666 31.2879 50.2666C30.978 50.2666 30.7114 50.3691 30.4881 50.5742C30.2693 50.7793 30.16 51.0186 30.16 51.292C30.16 51.5335 30.2511 51.7637 30.4334 51.9824C30.6157 52.2057 30.9985 52.4678 31.5818 52.7686C32.2928 53.1377 32.7758 53.4932 33.0311 53.835C33.2817 54.1813 33.407 54.571 33.407 55.0039C33.407 55.6146 33.1928 56.1318 32.7645 56.5557C32.3361 56.9795 31.8006 57.1914 31.158 57.1914C30.7296 57.1914 30.3195 57.098 29.9275 56.9111C29.5402 56.7243 29.2189 56.4668 28.9637 56.1387L29.5652 55.4551C30.0529 56.0065 30.5701 56.2822 31.117 56.2822C31.4998 56.2822 31.8256 56.1592 32.0945 55.9131C32.3634 55.667 32.4979 55.3776 32.4979 55.0449C32.4979 54.7715 32.409 54.5277 32.2312 54.3135C32.0535 54.1038 31.6525 53.8395 31.0281 53.5205C30.3582 53.1742 29.9025 52.8324 29.6609 52.4951C29.4194 52.1579 29.2986 51.7728 29.2986 51.3398C29.2986 50.7747 29.49 50.3053 29.8729 49.9316C30.2602 49.5579 30.7479 49.3711 31.3357 49.3711C32.0193 49.3711 32.7075 49.7061 33.4002 50.376ZM38.0363 46.8008H39.0002V49.5625H40.5178V50.3828H39.0002V57H38.0363V50.3828H36.7307V49.5625H38.0363V46.8008ZM44.2584 46.9443H46.2613C47.3779 46.9443 48.1344 46.9899 48.5309 47.0811C49.1279 47.2178 49.6132 47.5117 49.9869 47.9629C50.3606 48.4095 50.5475 48.9609 50.5475 49.6172C50.5475 50.1641 50.4176 50.6449 50.1578 51.0596C49.9026 51.4743 49.5357 51.7887 49.0572 52.0029C48.5787 52.2126 47.9179 52.3197 47.0748 52.3242L50.691 57H49.4469L45.8375 52.3242H45.2633V57H44.2584V46.9443ZM45.2633 47.9287V51.3467L46.9928 51.3604C47.6627 51.3604 48.1572 51.2965 48.4762 51.1689C48.7997 51.0413 49.0504 50.8385 49.2281 50.5605C49.4104 50.278 49.5016 49.9635 49.5016 49.6172C49.5016 49.2799 49.4104 48.9746 49.2281 48.7012C49.0458 48.4232 48.8066 48.2249 48.5103 48.1064C48.2141 47.988 47.7219 47.9287 47.0338 47.9287H45.2633ZM58.3896 50.376L57.7744 51.0117C57.264 50.515 56.765 50.2666 56.2773 50.2666C55.9674 50.2666 55.7008 50.3691 55.4775 50.5742C55.2588 50.7793 55.1494 51.0186 55.1494 51.292C55.1494 51.5335 55.2406 51.7637 55.4229 51.9824C55.6051 52.2057 55.988 52.4678 56.5713 52.7686C57.2822 53.1377 57.7653 53.4932 58.0205 53.835C58.2712 54.1813 58.3965 54.571 58.3965 55.0039C58.3965 55.6146 58.1823 56.1318 57.7539 56.5557C57.3255 56.9795 56.79 57.1914 56.1475 57.1914C55.7191 57.1914 55.3089 57.098 54.917 56.9111C54.5296 56.7243 54.2083 56.4668 53.9531 56.1387L54.5547 55.4551C55.0423 56.0065 55.5596 56.2822 56.1064 56.2822C56.4893 56.2822 56.8151 56.1592 57.084 55.9131C57.3529 55.667 57.4873 55.3776 57.4873 55.0449C57.4873 54.7715 57.3984 54.5277 57.2207 54.3135C57.043 54.1038 56.6419 53.8395 56.0176 53.5205C55.3477 53.1742 54.8919 52.8324 54.6504 52.4951C54.4089 52.1579 54.2881 51.7728 54.2881 51.3398C54.2881 50.7747 54.4795 50.3053 54.8623 49.9316C55.2497 49.5579 55.7373 49.3711 56.3252 49.3711C57.0088 49.3711 57.6969 49.7061 58.3896 50.376ZM65.9311 50.376L65.3158 51.0117C64.8054 50.515 64.3064 50.2666 63.8187 50.2666C63.5089 50.2666 63.2423 50.3691 63.0189 50.5742C62.8002 50.7793 62.6908 51.0186 62.6908 51.292C62.6908 51.5335 62.782 51.7637 62.9643 51.9824C63.1465 52.2057 63.5294 52.4678 64.1127 52.7686C64.8236 53.1377 65.3067 53.4932 65.5619 53.835C65.8126 54.1813 65.9379 54.571 65.9379 55.0039C65.9379 55.6146 65.7237 56.1318 65.2953 56.5557C64.8669 56.9795 64.3314 57.1914 63.6889 57.1914C63.2605 57.1914 62.8503 57.098 62.4584 56.9111C62.071 56.7243 61.7497 56.4668 61.4945 56.1387L62.0961 55.4551C62.5837 56.0065 63.101 56.2822 63.6479 56.2822C64.0307 56.2822 64.3565 56.1592 64.6254 55.9131C64.8943 55.667 65.0287 55.3776 65.0287 55.0449C65.0287 54.7715 64.9398 54.5277 64.7621 54.3135C64.5844 54.1038 64.1833 53.8395 63.559 53.5205C62.8891 53.1742 62.4333 52.8324 62.1918 52.4951C61.9503 52.1579 61.8295 51.7728 61.8295 51.3398C61.8295 50.7747 62.0209 50.3053 62.4037 49.9316C62.7911 49.5579 63.2787 49.3711 63.8666 49.3711C64.5502 49.3711 65.2383 49.7061 65.9311 50.376ZM69.7332 49.5625H70.6902V50.8955C71.073 50.3851 71.4969 50.0046 71.9617 49.7539C72.4266 49.4987 72.9324 49.3711 73.4793 49.3711C74.0353 49.3711 74.5275 49.5124 74.9559 49.7949C75.3888 50.0775 75.7078 50.458 75.9129 50.9365C76.118 51.415 76.2205 52.1602 76.2205 53.1719V57H75.2703V53.4521C75.2703 52.5954 75.2339 52.0234 75.1609 51.7363C75.047 51.2441 74.8328 50.875 74.5184 50.6289C74.2039 50.3783 73.7937 50.2529 73.2879 50.2529C72.7091 50.2529 72.1896 50.4443 71.7293 50.8271C71.2736 51.21 70.9728 51.6839 70.827 52.249C70.7358 52.6182 70.6902 53.2926 70.6902 54.2725V57H69.7332V49.5625ZM89.9006 48.8105L89.1076 49.4189C88.6701 48.8493 88.1437 48.4186 87.5285 48.127C86.9178 47.8307 86.2456 47.6826 85.5119 47.6826C84.7098 47.6826 83.967 47.8763 83.2834 48.2637C82.5998 48.6465 82.0689 49.1637 81.6906 49.8154C81.3169 50.4626 81.1301 51.1917 81.1301 52.0029C81.1301 53.2288 81.5493 54.252 82.3879 55.0723C83.231 55.8926 84.2928 56.3027 85.5734 56.3027C86.9816 56.3027 88.1597 55.7513 89.1076 54.6484L89.9006 55.25C89.3993 55.888 88.7727 56.3825 88.0207 56.7334C87.2733 57.0798 86.437 57.2529 85.5119 57.2529C83.7528 57.2529 82.3651 56.6673 81.3488 55.4961C80.4966 54.5072 80.0705 53.3132 80.0705 51.9141C80.0705 50.4421 80.5855 49.2048 81.6154 48.2021C82.6499 47.195 83.9442 46.6914 85.4982 46.6914C86.437 46.6914 87.2847 46.8783 88.0412 47.252C88.7977 47.6211 89.4175 48.1406 89.9006 48.8105ZM94.7008 46.8008H95.6646V49.5625H97.1822V50.3828H95.6646V57H94.7008V50.3828H93.3951V49.5625H94.7008V46.8008Z" fill="black"/>
<rect width="121" height="43" rx="5" fill="#FF0004"/>
<path d="M42.6908 10.6C42.8828 10.6 43.0428 10.6747 43.1708 10.824C43.3201 10.952 43.3948 11.112 43.3948 11.304L43.3628 11.528L36.0028 31.944C35.8961 32.2427 35.7254 32.4987 35.4908 32.712C35.2561 32.904 34.9468 33 34.5628 33H27.1068C26.7228 33 26.4134 32.904 26.1788 32.712C25.9441 32.4987 25.7841 32.2747 25.6988 32.04L18.2747 11.528L18.2428 11.304C18.2428 11.112 18.3068 10.952 18.4348 10.824C18.5841 10.6747 18.7548 10.6 18.9468 10.6H25.6988C26.0828 10.6 26.3921 10.7173 26.6267 10.952C26.8828 11.1653 27.0534 11.4 27.1388 11.656L30.8188 23.912L34.4988 11.656C34.5841 11.3787 34.7441 11.1333 34.9788 10.92C35.2134 10.7067 35.5334 10.6 35.9388 10.6H42.6908ZM57.9103 10.6C61.5156 10.6 64.3956 11.3787 66.5503 12.936C68.7263 14.4933 69.8143 16.904 69.8143 20.168V23.432C69.8143 26.76 68.7369 29.192 66.5823 30.728C64.4489 32.2427 61.5583 33 57.9103 33H47.7023C47.4676 33 47.2649 32.9147 47.0943 32.744C46.9236 32.5733 46.8383 32.3707 46.8383 32.136V11.464C46.8383 11.2293 46.9236 11.0267 47.0943 10.856C47.2649 10.6853 47.4676 10.6 47.7023 10.6H57.9103ZM58.0703 26.76C59.0729 26.76 59.8623 26.5253 60.4383 26.056C61.0356 25.5653 61.3343 24.8827 61.3343 24.008V19.592C61.3343 18.7173 61.0356 18.0453 60.4383 17.576C59.8623 17.0853 59.0729 16.84 58.0703 16.84H55.1583V26.76H58.0703ZM98.4098 31.88C98.4951 32.008 98.5378 32.1467 98.5378 32.296C98.5378 32.488 98.4631 32.6587 98.3138 32.808C98.1858 32.936 98.0258 33 97.8338 33H89.5778C89.0871 33 88.7031 32.8293 88.4258 32.488L82.8578 25.608V32.136C82.8578 32.3707 82.7724 32.5733 82.6018 32.744C82.4311 32.9147 82.2284 33 81.9938 33H75.4018C75.1671 33 74.9644 32.9147 74.7938 32.744C74.6231 32.5733 74.5378 32.3707 74.5378 32.136V11.464C74.5378 11.2293 74.6231 11.0267 74.7938 10.856C74.9644 10.6853 75.1671 10.6 75.4018 10.6H81.9938C82.2284 10.6 82.4311 10.6853 82.6018 10.856C82.7724 11.0267 82.8578 11.2293 82.8578 11.464V17.48L87.9138 11.144C88.2338 10.7813 88.6284 10.6 89.0978 10.6H96.8098C97.0018 10.6 97.1618 10.6747 97.2898 10.824C97.4391 10.952 97.5138 11.112 97.5138 11.304C97.5138 11.4747 97.4604 11.624 97.3538 11.752L89.7698 21L98.4098 31.88Z" fill="white"/>
</svg>
