<svg width="100" height="100" viewBox="0 0 100 100" fill="none" xmlns="http://www.w3.org/2000/svg">
<path d="M92.2739 13.104C90.7739 11.832 88.4179 11.65 85.9819 12.628H85.9779C83.4159 13.656 13.4559 43.664 10.6079 44.89C10.0899 45.07 5.56591 46.758 6.03191 50.518C6.44791 53.908 10.0839 55.312 10.5279 55.474L28.3139 61.564C29.4939 65.492 33.8439 79.984 34.8059 83.08C35.4059 85.01 36.3839 87.546 38.0979 88.068C39.6019 88.648 41.0979 88.118 42.0659 87.358L52.9399 77.272L70.4939 90.962L70.9119 91.212C72.1039 91.74 73.2459 92.004 74.3359 92.004C75.1779 92.004 75.9859 91.846 76.7579 91.53C79.3879 90.45 80.4399 87.944 80.5499 87.66L93.6619 19.506C94.4619 15.866 93.3499 14.014 92.2739 13.104ZM43.9999 64L37.9999 80L31.9999 60L77.9999 26L43.9999 64Z" fill="#FF0000"/>
</svg>
