<svg width="128" height="128" viewBox="0 0 128 128" fill="none" xmlns="http://www.w3.org/2000/svg">
<path d="M96 14H32C23.164 14 16 21.164 16 30V94C16 102.836 23.164 110 32 110H96C104.836 110 112 102.836 112 94V30C112 21.164 104.836 14 96 14ZM84.646 84C82.208 76.392 76.132 70.506 68.096 69.706V84H66.856C44.992 84 32.52 68.984 32 44H42.954C43.314 62.338 51.388 70.106 57.784 71.708V44H68.098V59.816C74.414 59.136 81.05 51.928 83.288 44H93.602C91.884 53.77 84.688 60.976 79.57 63.94C84.686 66.342 92.882 72.628 96 84H84.646Z" fill="#FF0000"/>
</svg>
